# Cliff v4
v -49.755 0.051 -9.512
v -44.782 0.000 -9.771
v -44.374 5.673 -9.412
v -50.161 5.405 -9.858
v -39.088 0.336 -9.668
v -39.295 5.663 -9.570
v -33.947 0.531 -9.769
v -33.849 5.659 -9.555
v -28.823 0.399 -9.753
v -28.491 5.760 -9.472
v -23.800 0.078 -9.961
v -23.399 5.995 -9.615
v -18.124 0.493 -9.596
v -18.091 5.428 -9.435
v -12.740 0.698 -9.506
v -13.011 5.339 -9.596
v -7.640 0.469 -9.647
v -7.811 5.253 -9.652
v -2.278 0.235 -9.549
v -2.393 5.436 -9.660
v 2.899 0.000 -9.635
v 3.102 5.424 -9.462
v 7.927 0.349 -9.841
v 8.096 5.524 -9.693
v 13.033 0.171 -9.827
v 13.472 5.691 -9.588
v 18.246 0.162 -9.882
v 18.775 5.036 -9.553
v 23.624 0.545 -9.775
v 24.238 5.767 -9.392
v 28.974 0.478 -9.697
v 29.250 5.755 -9.467
v 34.070 0.619 -9.841
v 34.420 5.294 -9.541
v 39.555 0.558 -9.790
v 39.892 5.536 -9.505
v 45.338 0.425 -9.478
v 44.808 5.885 -9.661
v 50.213 0.035 -9.805
v 50.277 5.722 -9.628
v -44.612 10.538 -9.617
v -50.181 10.632 -9.872
v -39.832 10.767 -10.027
v -34.387 11.082 -9.876
v -28.697 10.935 -9.652
v -24.088 10.749 -10.078
v -18.204 11.118 -9.682
v -13.117 10.954 -9.684
v -7.584 10.793 -9.601
v -2.373 10.802 -9.632
v 3.098 10.570 -9.460
v 8.276 10.615 -9.534
v 13.348 10.983 -9.697
v 18.435 10.984 -9.857
v 23.541 10.683 -9.995
v 28.988 10.679 -9.831
v 34.297 10.507 -9.785
v 39.803 10.432 -9.584
v 44.719 10.595 -9.736
v 49.830 10.762 -9.871
v -44.480 16.191 -9.638
v -49.662 16.487 -9.571
v -39.549 16.559 -9.931
v -34.083 16.521 -9.751
v -28.776 16.469 -9.723
v -23.792 16.225 -9.969
v -18.228 16.282 -9.698
v -12.659 16.510 -9.437
v -7.539 16.225 -9.545
v -2.242 16.189 -9.528
v 3.204 16.146 -9.369
v 8.448 16.146 -9.525
v 13.609 16.647 -9.605
v 18.620 16.655 -9.836
v 23.875 16.596 -9.841
v 29.139 16.425 -9.838
v 34.738 16.533 -9.553
v 40.033 16.430 -9.387
v 45.154 16.210 -9.508
v 49.920 16.363 -9.925
v -44.664 21.971 -9.802
v -50.232 22.261 -10.060
v -39.347 22.144 -9.752
v -34.066 22.058 -9.606
v -29.053 22.083 -9.824
v -23.696 22.126 -9.878
v -18.148 21.568 -9.629
v -12.635 21.932 -9.545
v -7.273 22.296 -9.463
v -2.128 21.711 -9.570
v 3.151 21.666 -9.553
v 8.394 21.746 -9.565
v 13.614 22.156 -9.601
v 19.039 22.154 -9.466
v 24.097 21.939 -9.501
v 29.263 22.222 -9.592
v 34.247 22.143 -9.836
v 39.527 22.203 -9.960
v 44.977 21.995 -9.648
v 50.401 22.484 -9.521
v -44.499 27.916 -9.800
v -50.001 27.533 -10.006
v -39.145 27.506 -9.579
v -33.864 27.577 -9.566
v -29.016 27.693 -9.784
v -23.873 27.288 -9.894
v -17.995 27.545 -9.495
v -12.700 27.441 -9.470
v -7.395 27.703 -9.427
v -2.044 27.513 -9.502
v 3.071 27.397 -9.624
v 8.491 27.388 -9.476
v 13.588 27.642 -9.629
v 18.634 27.508 -9.809
v 24.352 27.336 -9.294
v 29.257 27.484 -9.598
v 34.126 27.815 -9.939
v 39.349 27.723 -9.977
v 45.170 27.764 -9.490
v 50.064 27.755 -9.799
v -44.529 33.000 -9.686
v -49.673 32.642 -9.727
v -39.012 32.917 -9.470
v -33.673 32.694 -9.403
v -28.791 32.600 -9.715
v -23.262 32.506 -9.509
v -17.966 32.740 -9.603
v -12.821 32.921 -9.710
v -7.655 32.629 -9.788
v -2.120 32.614 -9.559
v 2.995 32.608 -9.679
v 8.357 32.724 -9.601
v 13.601 32.519 -9.625
v 18.847 32.686 -9.629
v 24.279 32.462 -9.493
v 29.219 32.559 -9.616
v 34.591 32.533 -9.540
v 39.862 32.636 -9.655
v 45.134 33.249 -9.516
v 50.201 32.905 -9.697
v -44.238 38.646 -9.568
v -50.058 38.800 -10.046
v -39.123 38.020 -9.565
v -34.244 38.228 -9.759
v -28.689 38.651 -9.506
v -22.952 38.504 -9.371
v -17.958 37.973 -9.604
v -12.840 38.024 -9.733
v -8.104 38.089 -10.048
v -2.493 38.061 -9.746
v 2.623 37.798 -9.865
v 7.973 37.815 -9.805
v 13.224 38.099 -9.946
v 18.698 37.717 -9.624
v 24.048 38.101 -9.559
v 28.844 37.800 -9.945
v 34.450 38.109 -9.663
v 39.959 38.713 -9.588
v 44.985 38.233 -9.652
v 50.058 38.208 -9.815
v -44.160 44.020 -9.502
v -50.112 43.129 -10.098
v -39.471 43.836 -9.853
v -34.111 43.504 -9.785
v -28.549 43.924 -9.512
v -23.434 43.986 -9.654
v -17.804 44.032 -9.465
v -12.808 43.505 -9.564
v -7.603 43.417 -9.606
v -2.613 43.742 -9.844
v 2.750 43.374 -9.759
v 8.046 43.744 -9.735
v 13.318 43.729 -9.717
v 18.848 43.925 -9.627
v 24.148 44.137 -9.604
v 29.587 43.992 -9.453
v 34.999 43.751 -9.324
v 40.058 43.918 -9.364
v 45.252 43.566 -9.421
v 50.359 43.880 -9.556
v -44.480 49.234 -9.652
v -50.321 49.151 -10.139
v -39.230 49.113 -9.658
v -34.027 49.376 -9.570
v -28.996 49.478 -9.767
v -23.711 49.566 -9.756
v -18.342 49.359 -9.649
v -13.267 48.938 -9.824
v -7.759 49.023 -9.746
v -2.419 49.256 -9.823
v 2.712 49.173 -9.930
v 8.405 49.690 -9.558
v 13.355 49.295 -9.701
v 18.609 49.263 -9.694
v 23.812 49.396 -9.758
v 29.599 49.127 -9.443
v 34.829 49.205 -9.469
v 39.562 49.208 -9.777
v 44.690 49.275 -9.773
v 50.011 49.285 -9.726
v -44.868 54.499 -9.831
v -50.032 54.791 -9.891
v -39.485 54.728 -9.740
v -33.883 55.020 -9.585
v -28.381 54.920 -9.381
v -23.598 54.599 -9.653
v -18.343 54.731 -9.666
v -13.048 54.576 -9.775
v -7.835 54.974 -9.808
v -2.544 54.742 -9.793
v 2.819 54.673 -9.710
v 8.161 54.770 -9.635
v 13.497 54.512 -9.710
v 18.889 54.993 -9.603
v 23.901 55.186 -9.675
v 29.309 54.765 -9.693
v 34.780 54.713 -9.375
v 39.680 54.339 -9.553
v 44.599 54.282 -9.851
v 49.673 54.618 -10.008
v -44.698 59.532 -9.696
v -50.407 59.716 -10.078
v -39.311 60.038 -9.585
v -34.002 59.956 -9.547
v -28.697 59.947 -9.651
v -23.999 60.083 -9.999
v -18.473 59.290 -9.912
v -13.137 60.172 -9.851
v -7.611 60.107 -9.621
v -2.612 59.909 -9.847
v 2.457 59.932 -9.880
v 8.354 59.904 -9.469
v 13.488 59.917 -9.720
v 18.853 60.366 -9.621
v 24.218 60.169 -9.538
v 29.650 59.822 -9.401
v 34.480 60.257 -9.633
v 39.627 59.668 -9.737
v 44.787 59.990 -9.826
v 49.831 59.862 -10.013
v -50.392 0.000 9.612
v -43.936 0.046 10.880
v -45.823 5.537 11.784
v -50.160 5.833 12.798
v -44.047 0.109 8.057
v -42.104 5.386 10.113
v -37.424 0.000 9.515
v -33.756 5.398 10.440
v -31.103 0.195 10.687
v -28.000 5.795 11.036
v -24.681 0.356 11.889
v -21.927 5.341 11.851
v -20.069 0.000 11.219
v -20.435 5.673 10.791
v -13.610 0.392 12.500
v -15.902 6.002 10.038
v -9.808 0.352 10.968
v -9.526 5.680 11.206
v -2.024 0.253 10.693
v -3.827 5.562 11.665
v 1.666 0.439 11.925
v 1.388 5.431 11.616
v 7.300 0.273 12.326
v 7.851 5.866 12.947
v 10.028 0.000 9.601
v 12.367 5.543 12.132
v 16.216 0.629 10.605
v 18.139 5.162 12.684
v 23.058 1.001 12.303
v 22.893 5.358 12.114
v 26.155 0.286 12.938
v 26.741 5.035 10.628
v 30.442 0.507 11.901
v 31.793 5.119 10.349
v 37.529 0.476 10.899
v 37.510 5.483 10.834
v 43.220 0.211 11.361
v 43.457 5.486 11.572
v 49.664 0.000 9.664
v 47.814 5.310 10.649
v -45.126 11.034 12.548
v -53.108 10.326 9.635
v -41.901 10.486 10.374
v -33.176 10.735 11.070
v -27.926 10.886 11.101
v -22.935 11.151 10.806
v -21.332 10.629 9.840
v -16.407 10.946 9.419
v -11.347 10.875 9.293
v -4.017 10.735 11.487
v 0.164 10.662 10.343
v 9.390 11.005 11.654
v 15.485 10.808 12.506
v 19.369 10.907 11.045
v 24.052 10.686 10.370
v 28.558 10.511 9.566
v 34.215 10.578 9.944
v 36.542 10.988 9.844
v 42.809 10.369 10.892
v 46.928 10.495 9.704
v -45.182 16.102 12.526
v -52.955 16.201 9.786
v -41.991 16.234 10.277
v -33.318 16.539 10.912
v -28.579 16.309 10.407
v -25.357 16.498 11.163
v -20.067 16.741 11.183
v -15.391 16.290 10.519
v -12.672 16.201 10.816
v -6.563 16.871 11.696
v 1.044 16.393 11.307
v 7.738 16.379 12.834
v 15.957 16.669 13.033
v 23.070 16.483 12.039
v 23.204 16.425 9.484
v 29.117 16.125 10.150
v 34.900 16.479 10.702
v 39.278 16.420 9.791
v 45.799 16.360 11.140
v 51.682 15.811 11.808
v -45.240 21.779 12.466
v -52.028 22.366 10.776
v -42.216 22.037 10.010
v -37.228 22.252 9.736
v -31.554 22.185 10.189
v -25.754 22.111 10.801
v -22.789 22.434 11.279
v -17.344 21.788 11.442
v -9.748 22.018 10.999
v -0.635 22.548 12.129
v 4.071 22.624 11.538
v 9.831 22.282 12.081
v 11.205 22.573 10.899
v 17.657 22.219 12.135
v 21.983 22.007 11.102
v 26.337 22.208 10.148
v 32.285 22.180 10.862
v 37.434 22.285 10.808
v 46.305 21.905 11.724
v 49.327 21.938 9.286
v -45.760 27.656 11.908
v -52.691 27.681 10.070
v -41.256 27.570 11.075
v -35.783 27.367 11.244
v -30.717 27.520 11.065
v -27.301 27.352 12.072
v -21.728 27.376 12.379
v -14.289 27.418 11.730
v -6.535 27.609 11.445
v -0.801 27.512 11.948
v 4.369 27.801 11.891
v 7.507 27.930 12.566
v 11.598 27.682 11.266
v 17.154 27.742 11.640
v 18.916 27.463 10.791
v 23.538 27.691 10.137
v 30.101 27.599 11.527
v 37.972 27.493 11.370
v 42.998 27.320 11.089
v 47.110 27.389 9.865
v -47.000 32.551 10.536
v -52.034 32.837 10.764
v -40.654 32.809 11.712
v -35.421 32.836 11.712
v -29.630 32.682 12.274
v -23.772 32.756 12.870
v -19.507 32.591 11.801
v -15.184 32.875 10.747
v -9.781 32.698 10.960
v -4.518 32.462 10.922
v 0.967 32.553 11.157
v 3.072 32.543 10.828
v 9.623 32.512 12.157
v 16.876 32.523 11.276
v 21.716 32.472 10.808
v 26.069 32.819 9.841
v 31.478 32.568 10.047
v 36.745 32.657 10.056
v 43.631 32.227 11.797
v 48.034 32.310 10.835
v -46.867 37.870 10.643
v -53.067 37.758 9.684
v -42.826 37.615 9.387
v -36.897 37.747 10.038
v -29.932 37.710 11.897
v -23.708 37.572 12.927
v -19.158 37.884 12.163
v -14.989 38.218 10.981
v -9.813 38.267 10.894
v -5.246 37.940 10.127
v 0.276 37.614 10.396
v 5.913 37.729 10.833
v 11.131 38.759 10.737
v 13.682 38.056 10.825
v 20.753 38.175 9.775
v 25.811 37.894 9.567
v 31.136 37.768 9.639
v 34.224 37.983 10.259
v 40.144 37.752 11.012
v 46.801 37.666 12.542
v -45.275 43.490 12.379
v -51.283 43.724 11.646
v -39.962 43.876 12.441
v -34.412 43.913 12.754
v -27.616 43.673 11.466
v -22.023 43.442 11.826
v -19.052 44.019 12.293
v -13.981 43.869 12.125
v -8.683 43.832 12.169
v -3.057 43.628 12.505
v 2.247 44.087 12.544
v 6.753 44.162 11.737
v 12.351 44.184 9.115
v 18.341 44.102 9.917
v 20.615 43.437 9.647
v 26.472 43.824 10.329
v 32.554 44.125 11.216
v 35.507 44.104 11.697
v 40.339 44.014 11.240
v 45.580 44.209 11.198
v -44.404 49.202 10.368
v -49.596 49.575 10.443
v -39.706 49.182 9.771
v -36.723 49.313 10.304
v -29.323 49.427 12.592
v -22.956 49.553 10.799
v -18.933 49.311 12.413
v -15.428 48.939 10.536
v -7.469 49.410 10.439
v -2.157 49.277 10.487
v 2.887 49.333 10.225
v 9.894 49.460 12.176
v 12.181 48.890 11.889
v 16.228 49.120 10.566
v 21.147 49.747 10.216
v 27.275 49.622 11.208
v 33.782 49.183 12.485
v 38.041 49.254 11.416
v 40.459 49.424 11.334
v 44.712 49.647 10.207
v -46.212 54.414 11.381
v -53.105 54.456 9.659
v -40.952 54.742 11.409
v -35.263 55.161 11.873
v -29.526 54.915 12.382
v -24.418 54.198 12.207
v -16.762 54.813 11.800
v -11.154 54.567 12.143
v -10.281 54.618 10.423
v -4.505 54.307 10.930
v 1.037 54.685 11.232
v 7.131 54.559 12.170
v 14.144 54.421 11.039
v 18.997 54.713 10.568
v 21.540 54.455 10.649
v 27.678 54.449 11.571
v 33.813 54.443 12.530
v 37.812 54.848 11.200
v 42.865 54.868 10.967
v 46.405 54.398 9.104
v -45.086 60.076 12.595
v -51.420 59.904 11.444
v -40.915 60.089 11.405
v -34.958 59.884 12.151
v -29.370 60.022 12.519
v -21.588 59.973 12.267
v -16.391 60.091 12.173
v -10.999 59.533 12.289
v -8.523 59.637 12.351
v -6.547 59.958 11.752
v 1.207 59.967 11.455
v 10.432 60.106 12.701
v 13.992 59.959 10.848
v 19.370 59.506 10.971
v 21.152 59.791 10.241
v 24.009 59.695 10.645
v 33.487 59.940 12.195
v 37.858 59.657 11.272
v 43.973 59.919 12.142
v 50.082 59.829 13.079
v -49.720 0.388 -5.322
v -49.644 6.264 -5.257
v -50.012 10.707 -5.615
v -50.271 16.517 -5.854
v -50.258 22.055 -5.829
v -50.376 26.993 -5.946
v -49.543 32.970 -5.573
v -50.351 38.444 -6.356
v -50.504 44.222 -6.098
v -50.263 50.073 -5.856
v -49.799 54.224 -5.398
v -50.515 59.817 -6.095
v -49.780 0.320 -1.745
v -49.623 5.621 -1.626
v -50.405 10.979 -2.439
v -50.453 16.745 -1.647
v -49.895 22.144 -1.052
v -50.548 27.582 -0.883
v -49.739 32.846 -1.746
v -50.993 38.208 -2.202
v -49.933 44.234 -1.095
v -49.257 49.859 -1.250
v -50.199 54.600 -1.368
v -50.585 59.833 -0.933
v -49.083 0.335 2.923
v -49.330 5.623 2.708
v -50.358 10.687 1.587
v -51.136 16.599 2.188
v -49.769 21.965 3.657
v -51.240 27.755 3.518
v -49.477 32.819 2.534
v -51.450 37.854 1.858
v -49.726 44.141 3.680
v -49.979 49.740 2.028
v -49.333 54.751 2.686
v -51.256 59.851 3.512
v -49.479 0.000 6.527
v -49.237 6.439 6.800
v -49.032 10.410 7.051
v -50.598 16.340 7.519
v -50.837 22.392 7.230
v -50.576 27.988 7.522
v -48.387 33.600 7.689
v -50.534 37.815 7.587
v -51.291 43.575 6.729
v -49.528 49.224 6.505
v -50.941 55.181 7.120
v -50.444 59.726 7.655
v 50.229 0.329 -5.791
v 50.453 5.343 -5.136
v 49.189 10.683 -6.391
v 49.957 16.642 -5.643
v 50.173 22.161 -5.429
v 49.862 27.797 -5.326
v 49.960 32.472 -5.636
v 50.275 37.701 -5.314
v 49.994 43.986 -5.580
v 49.575 49.745 -5.590
v 49.666 54.953 -5.498
v 49.376 59.491 -5.783
v 49.607 0.328 -2.431
v 50.578 5.911 -1.409
v 49.585 10.809 -1.594
v 48.235 16.050 -2.122
v 49.506 22.109 -0.843
v 49.860 27.383 -0.471
v 50.286 32.302 -0.847
v 49.168 38.512 -1.171
v 48.823 43.924 -1.532
v 48.388 49.903 -1.981
v 48.112 54.779 -1.408
v 48.508 59.891 -1.023
v 50.010 0.223 1.979
v 51.009 5.759 3.023
v 49.377 11.005 2.729
v 47.289 15.936 1.979
v 49.123 21.950 3.878
v 49.263 27.456 4.035
v 50.650 32.282 4.086
v 48.667 38.526 3.405
v 47.847 44.333 2.573
v 47.146 49.450 1.804
v 47.688 54.697 2.379
v 47.174 59.774 3.294
v 50.270 0.735 6.242
v 49.135 4.945 7.211
v 48.070 10.667 6.086
v 49.189 16.517 7.264
v 49.068 21.701 7.098
v 49.145 27.019 7.195
v 49.334 32.602 7.370
v 49.599 38.830 7.686
v 46.945 43.627 6.970
v 46.004 49.278 5.951
v 48.345 54.685 6.345
v 47.581 59.452 7.671
v -44.903 0.814 -5.753
v -44.712 0.503 -1.142
v -43.756 0.283 3.037
v -44.601 0.000 6.149
v -39.197 0.527 -5.737
v -39.454 0.064 -1.136
v -39.676 0.060 3.192
v -40.766 0.467 6.722
v -33.948 0.465 -5.337
v -33.671 0.240 -0.616
v -34.058 0.288 3.563
v -34.877 0.275 7.372
v -28.967 0.522 -5.592
v -28.825 0.178 -1.024
v -29.774 0.013 2.576
v -29.871 0.327 7.138
v -24.212 0.535 -5.696
v -24.830 0.058 -1.499
v -25.581 0.000 2.825
v -24.442 0.213 7.285
v -18.636 0.211 -5.794
v -19.577 0.518 -1.533
v -19.467 0.114 2.295
v -19.337 0.438 7.173
v -13.259 0.411 -5.698
v -14.889 0.476 -2.106
v -14.317 0.529 2.180
v -13.824 0.015 7.380
v -8.213 0.271 -5.488
v -9.069 0.100 -1.540
v -9.967 0.264 2.624
v -8.946 0.482 6.986
v -2.289 0.343 -5.271
v -3.130 0.071 -1.658
v -3.307 0.062 2.693
v -3.933 0.526 6.777
v 3.245 0.279 -4.999
v 2.912 0.000 -0.878
v 2.365 0.000 3.147
v 1.078 0.331 6.487
v 8.581 0.701 -4.926
v 7.689 0.000 -1.375
v 7.338 0.000 2.806
v 7.514 0.537 7.682
v 12.714 0.409 -5.597
v 12.801 0.062 -1.537
v 12.181 0.000 2.354
v 10.391 0.000 5.159
v 18.031 0.000 -5.538
v 16.989 0.121 -1.760
v 17.877 0.336 2.834
v 16.336 0.990 5.879
v 23.589 0.316 -5.262
v 23.340 0.153 -0.664
v 22.910 0.379 4.011
v 22.988 0.575 7.399
v 28.471 0.069 -5.628
v 28.864 0.147 -1.249
v 28.729 0.364 3.174
v 28.488 1.004 7.630
v 33.390 0.646 -5.977
v 33.767 0.419 -1.639
v 32.824 0.247 1.972
v 32.077 0.717 5.848
v 38.956 0.715 -6.084
v 39.393 0.200 -2.095
v 39.323 0.382 1.845
v 37.297 0.581 5.833
v 45.446 0.609 -5.315
v 45.943 0.445 -0.798
v 45.970 0.746 3.297
v 46.335 0.620 7.696
v -45.238 59.511 -5.657
v -45.322 59.630 -0.922
v -45.767 59.506 3.717
v -46.165 60.213 8.710
v -39.478 59.846 -5.187
v -39.600 59.671 -1.286
v -39.364 59.465 3.503
v -40.949 60.019 6.570
v -34.243 60.077 -5.204
v -33.805 59.899 -0.759
v -34.213 60.011 3.404
v -34.545 59.918 7.723
v -28.656 59.989 -5.287
v -28.032 60.063 -0.233
v -28.587 59.931 3.780
v -28.570 60.111 8.538
v -23.247 59.859 -5.168
v -23.031 60.203 -0.499
v -23.280 60.158 3.826
v -24.295 60.026 7.449
v -18.184 59.549 -5.360
v -17.753 59.812 -0.506
v -18.691 59.898 3.125
v -16.879 59.776 7.626
v -13.499 59.475 -5.925
v -12.652 59.838 -0.661
v -12.518 60.209 4.064
v -11.866 60.098 7.347
v -7.103 59.790 -5.228
v -7.472 59.718 -0.743
v -7.639 59.864 3.663
v -7.621 59.848 8.436
v -2.245 59.692 -5.223
v -2.388 59.750 -0.920
v -2.701 59.993 3.315
v -3.008 60.172 7.722
v 2.686 59.702 -5.536
v 2.546 59.920 -1.267
v 2.505 60.132 3.235
v 1.561 59.960 7.012
v 7.988 59.848 -5.502
v 8.033 60.180 -1.882
v 8.389 60.033 2.508
v 9.119 60.068 7.306
v 13.116 60.472 -6.067
v 13.228 60.362 -1.935
v 13.710 60.252 2.538
v 14.837 60.132 7.797
v 18.829 60.012 -5.598
v 18.605 59.786 -1.830
v 19.007 59.734 2.571
v 19.519 59.865 7.146
v 23.923 59.907 -5.356
v 23.818 59.669 -1.032
v 23.676 59.532 3.396
v 23.808 59.483 8.233
v 29.863 60.284 -4.714
v 28.603 59.999 -0.685
v 27.773 60.008 3.602
v 26.443 59.650 7.540
v 34.172 60.395 -5.636
v 33.395 59.987 -1.153
v 32.711 59.728 3.231
v 33.100 59.772 6.922
v 39.257 60.059 -5.789
v 38.616 59.925 -1.214
v 37.816 59.933 3.066
v 36.965 59.797 7.558
v 44.348 59.554 -5.567
v 43.101 60.006 -1.177
v 41.606 59.883 2.942
v 42.510 60.225 7.883
f 1 3 2
f 1 4 3
f 2 6 5
f 2 3 6
f 5 8 7
f 5 6 8
f 7 10 9
f 7 8 10
f 9 12 11
f 9 10 12
f 11 14 13
f 11 12 14
f 13 16 15
f 13 14 16
f 15 18 17
f 15 16 18
f 17 20 19
f 17 18 20
f 19 22 21
f 19 20 22
f 21 24 23
f 21 22 24
f 23 26 25
f 23 24 26
f 25 28 27
f 25 26 28
f 27 30 29
f 27 28 30
f 29 32 31
f 29 30 32
f 31 34 33
f 31 32 34
f 33 36 35
f 33 34 36
f 35 38 37
f 35 36 38
f 37 40 39
f 37 38 40
f 4 41 3
f 4 42 41
f 3 43 6
f 3 41 43
f 6 44 8
f 6 43 44
f 8 45 10
f 8 44 45
f 10 46 12
f 10 45 46
f 12 47 14
f 12 46 47
f 14 48 16
f 14 47 48
f 16 49 18
f 16 48 49
f 18 50 20
f 18 49 50
f 20 51 22
f 20 50 51
f 22 52 24
f 22 51 52
f 24 53 26
f 24 52 53
f 26 54 28
f 26 53 54
f 28 55 30
f 28 54 55
f 30 56 32
f 30 55 56
f 32 57 34
f 32 56 57
f 34 58 36
f 34 57 58
f 36 59 38
f 36 58 59
f 38 60 40
f 38 59 60
f 42 61 41
f 42 62 61
f 41 63 43
f 41 61 63
f 43 64 44
f 43 63 64
f 44 65 45
f 44 64 65
f 45 66 46
f 45 65 66
f 46 67 47
f 46 66 67
f 47 68 48
f 47 67 68
f 48 69 49
f 48 68 69
f 49 70 50
f 49 69 70
f 50 71 51
f 50 70 71
f 51 72 52
f 51 71 72
f 52 73 53
f 52 72 73
f 53 74 54
f 53 73 74
f 54 75 55
f 54 74 75
f 55 76 56
f 55 75 76
f 56 77 57
f 56 76 77
f 57 78 58
f 57 77 78
f 58 79 59
f 58 78 79
f 59 80 60
f 59 79 80
f 62 81 61
f 62 82 81
f 61 83 63
f 61 81 83
f 63 84 64
f 63 83 84
f 64 85 65
f 64 84 85
f 65 86 66
f 65 85 86
f 66 87 67
f 66 86 87
f 67 88 68
f 67 87 88
f 68 89 69
f 68 88 89
f 69 90 70
f 69 89 90
f 70 91 71
f 70 90 91
f 71 92 72
f 71 91 92
f 72 93 73
f 72 92 93
f 73 94 74
f 73 93 94
f 74 95 75
f 74 94 95
f 75 96 76
f 75 95 96
f 76 97 77
f 76 96 97
f 77 98 78
f 77 97 98
f 78 99 79
f 78 98 99
f 79 100 80
f 79 99 100
f 82 101 81
f 82 102 101
f 81 103 83
f 81 101 103
f 83 104 84
f 83 103 104
f 84 105 85
f 84 104 105
f 85 106 86
f 85 105 106
f 86 107 87
f 86 106 107
f 87 108 88
f 87 107 108
f 88 109 89
f 88 108 109
f 89 110 90
f 89 109 110
f 90 111 91
f 90 110 111
f 91 112 92
f 91 111 112
f 92 113 93
f 92 112 113
f 93 114 94
f 93 113 114
f 94 115 95
f 94 114 115
f 95 116 96
f 95 115 116
f 96 117 97
f 96 116 117
f 97 118 98
f 97 117 118
f 98 119 99
f 98 118 119
f 99 120 100
f 99 119 120
f 102 121 101
f 102 122 121
f 101 123 103
f 101 121 123
f 103 124 104
f 103 123 124
f 104 125 105
f 104 124 125
f 105 126 106
f 105 125 126
f 106 127 107
f 106 126 127
f 107 128 108
f 107 127 128
f 108 129 109
f 108 128 129
f 109 130 110
f 109 129 130
f 110 131 111
f 110 130 131
f 111 132 112
f 111 131 132
f 112 133 113
f 112 132 133
f 113 134 114
f 113 133 134
f 114 135 115
f 114 134 135
f 115 136 116
f 115 135 136
f 116 137 117
f 116 136 137
f 117 138 118
f 117 137 138
f 118 139 119
f 118 138 139
f 119 140 120
f 119 139 140
f 122 141 121
f 122 142 141
f 121 143 123
f 121 141 143
f 123 144 124
f 123 143 144
f 124 145 125
f 124 144 145
f 125 146 126
f 125 145 146
f 126 147 127
f 126 146 147
f 127 148 128
f 127 147 148
f 128 149 129
f 128 148 149
f 129 150 130
f 129 149 150
f 130 151 131
f 130 150 151
f 131 152 132
f 131 151 152
f 132 153 133
f 132 152 153
f 133 154 134
f 133 153 154
f 134 155 135
f 134 154 155
f 135 156 136
f 135 155 156
f 136 157 137
f 136 156 157
f 137 158 138
f 137 157 158
f 138 159 139
f 138 158 159
f 139 160 140
f 139 159 160
f 142 161 141
f 142 162 161
f 141 163 143
f 141 161 163
f 143 164 144
f 143 163 164
f 144 165 145
f 144 164 165
f 145 166 146
f 145 165 166
f 146 167 147
f 146 166 167
f 147 168 148
f 147 167 168
f 148 169 149
f 148 168 169
f 149 170 150
f 149 169 170
f 150 171 151
f 150 170 171
f 151 172 152
f 151 171 172
f 152 173 153
f 152 172 173
f 153 174 154
f 153 173 174
f 154 175 155
f 154 174 175
f 155 176 156
f 155 175 176
f 156 177 157
f 156 176 177
f 157 178 158
f 157 177 178
f 158 179 159
f 158 178 179
f 159 180 160
f 159 179 180
f 162 181 161
f 162 182 181
f 161 183 163
f 161 181 183
f 163 184 164
f 163 183 184
f 164 185 165
f 164 184 185
f 165 186 166
f 165 185 186
f 166 187 167
f 166 186 187
f 167 188 168
f 167 187 188
f 168 189 169
f 168 188 189
f 169 190 170
f 169 189 190
f 170 191 171
f 170 190 191
f 171 192 172
f 171 191 192
f 172 193 173
f 172 192 193
f 173 194 174
f 173 193 194
f 174 195 175
f 174 194 195
f 175 196 176
f 175 195 196
f 176 197 177
f 176 196 197
f 177 198 178
f 177 197 198
f 178 199 179
f 178 198 199
f 179 200 180
f 179 199 200
f 182 201 181
f 182 202 201
f 181 203 183
f 181 201 203
f 183 204 184
f 183 203 204
f 184 205 185
f 184 204 205
f 185 206 186
f 185 205 206
f 186 207 187
f 186 206 207
f 187 208 188
f 187 207 208
f 188 209 189
f 188 208 209
f 189 210 190
f 189 209 210
f 190 211 191
f 190 210 211
f 191 212 192
f 191 211 212
f 192 213 193
f 192 212 213
f 193 214 194
f 193 213 214
f 194 215 195
f 194 214 215
f 195 216 196
f 195 215 216
f 196 217 197
f 196 216 217
f 197 218 198
f 197 217 218
f 198 219 199
f 198 218 219
f 199 220 200
f 199 219 220
f 202 221 201
f 202 222 221
f 201 223 203
f 201 221 223
f 203 224 204
f 203 223 224
f 204 225 205
f 204 224 225
f 205 226 206
f 205 225 226
f 206 227 207
f 206 226 227
f 207 228 208
f 207 227 228
f 208 229 209
f 208 228 229
f 209 230 210
f 209 229 230
f 210 231 211
f 210 230 231
f 211 232 212
f 211 231 232
f 212 233 213
f 212 232 233
f 213 234 214
f 213 233 234
f 214 235 215
f 214 234 235
f 215 236 216
f 215 235 236
f 216 237 217
f 216 236 237
f 217 238 218
f 217 237 238
f 218 239 219
f 218 238 239
f 219 240 220
f 219 239 240
f 241 242 243
f 241 243 244
f 242 245 246
f 242 246 243
f 245 247 248
f 245 248 246
f 247 249 250
f 247 250 248
f 249 251 252
f 249 252 250
f 251 253 254
f 251 254 252
f 253 255 256
f 253 256 254
f 255 257 258
f 255 258 256
f 257 259 260
f 257 260 258
f 259 261 262
f 259 262 260
f 261 263 264
f 261 264 262
f 263 265 266
f 263 266 264
f 265 267 268
f 265 268 266
f 267 269 270
f 267 270 268
f 269 271 272
f 269 272 270
f 271 273 274
f 271 274 272
f 273 275 276
f 273 276 274
f 275 277 278
f 275 278 276
f 277 279 280
f 277 280 278
f 244 243 281
f 244 281 282
f 243 246 283
f 243 283 281
f 246 248 284
f 246 284 283
f 248 250 285
f 248 285 284
f 250 252 286
f 250 286 285
f 252 254 287
f 252 287 286
f 254 256 288
f 254 288 287
f 256 258 289
f 256 289 288
f 258 260 290
f 258 290 289
f 260 262 291
f 260 291 290
f 262 264 292
f 262 292 291
f 264 266 293
f 264 293 292
f 266 268 294
f 266 294 293
f 268 270 295
f 268 295 294
f 270 272 296
f 270 296 295
f 272 274 297
f 272 297 296
f 274 276 298
f 274 298 297
f 276 278 299
f 276 299 298
f 278 280 300
f 278 300 299
f 282 281 301
f 282 301 302
f 281 283 303
f 281 303 301
f 283 284 304
f 283 304 303
f 284 285 305
f 284 305 304
f 285 286 306
f 285 306 305
f 286 287 307
f 286 307 306
f 287 288 308
f 287 308 307
f 288 289 309
f 288 309 308
f 289 290 310
f 289 310 309
f 290 291 311
f 290 311 310
f 291 292 312
f 291 312 311
f 292 293 313
f 292 313 312
f 293 294 314
f 293 314 313
f 294 295 315
f 294 315 314
f 295 296 316
f 295 316 315
f 296 297 317
f 296 317 316
f 297 298 318
f 297 318 317
f 298 299 319
f 298 319 318
f 299 300 320
f 299 320 319
f 302 301 321
f 302 321 322
f 301 303 323
f 301 323 321
f 303 304 324
f 303 324 323
f 304 305 325
f 304 325 324
f 305 306 326
f 305 326 325
f 306 307 327
f 306 327 326
f 307 308 328
f 307 328 327
f 308 309 329
f 308 329 328
f 309 310 330
f 309 330 329
f 310 311 331
f 310 331 330
f 311 312 332
f 311 332 331
f 312 313 333
f 312 333 332
f 313 314 334
f 313 334 333
f 314 315 335
f 314 335 334
f 315 316 336
f 315 336 335
f 316 317 337
f 316 337 336
f 317 318 338
f 317 338 337
f 318 319 339
f 318 339 338
f 319 320 340
f 319 340 339
f 322 321 341
f 322 341 342
f 321 323 343
f 321 343 341
f 323 324 344
f 323 344 343
f 324 325 345
f 324 345 344
f 325 326 346
f 325 346 345
f 326 327 347
f 326 347 346
f 327 328 348
f 327 348 347
f 328 329 349
f 328 349 348
f 329 330 350
f 329 350 349
f 330 331 351
f 330 351 350
f 331 332 352
f 331 352 351
f 332 333 353
f 332 353 352
f 333 334 354
f 333 354 353
f 334 335 355
f 334 355 354
f 335 336 356
f 335 356 355
f 336 337 357
f 336 357 356
f 337 338 358
f 337 358 357
f 338 339 359
f 338 359 358
f 339 340 360
f 339 360 359
f 342 341 361
f 342 361 362
f 341 343 363
f 341 363 361
f 343 344 364
f 343 364 363
f 344 345 365
f 344 365 364
f 345 346 366
f 345 366 365
f 346 347 367
f 346 367 366
f 347 348 368
f 347 368 367
f 348 349 369
f 348 369 368
f 349 350 370
f 349 370 369
f 350 351 371
f 350 371 370
f 351 352 372
f 351 372 371
f 352 353 373
f 352 373 372
f 353 354 374
f 353 374 373
f 354 355 375
f 354 375 374
f 355 356 376
f 355 376 375
f 356 357 377
f 356 377 376
f 357 358 378
f 357 378 377
f 358 359 379
f 358 379 378
f 359 360 380
f 359 380 379
f 362 361 381
f 362 381 382
f 361 363 383
f 361 383 381
f 363 364 384
f 363 384 383
f 364 365 385
f 364 385 384
f 365 366 386
f 365 386 385
f 366 367 387
f 366 387 386
f 367 368 388
f 367 388 387
f 368 369 389
f 368 389 388
f 369 370 390
f 369 390 389
f 370 371 391
f 370 391 390
f 371 372 392
f 371 392 391
f 372 373 393
f 372 393 392
f 373 374 394
f 373 394 393
f 374 375 395
f 374 395 394
f 375 376 396
f 375 396 395
f 376 377 397
f 376 397 396
f 377 378 398
f 377 398 397
f 378 379 399
f 378 399 398
f 379 380 400
f 379 400 399
f 382 381 401
f 382 401 402
f 381 383 403
f 381 403 401
f 383 384 404
f 383 404 403
f 384 385 405
f 384 405 404
f 385 386 406
f 385 406 405
f 386 387 407
f 386 407 406
f 387 388 408
f 387 408 407
f 388 389 409
f 388 409 408
f 389 390 410
f 389 410 409
f 390 391 411
f 390 411 410
f 391 392 412
f 391 412 411
f 392 393 413
f 392 413 412
f 393 394 414
f 393 414 413
f 394 395 415
f 394 415 414
f 395 396 416
f 395 416 415
f 396 397 417
f 396 417 416
f 397 398 418
f 397 418 417
f 398 399 419
f 398 419 418
f 399 400 420
f 399 420 419
f 402 401 421
f 402 421 422
f 401 403 423
f 401 423 421
f 403 404 424
f 403 424 423
f 404 405 425
f 404 425 424
f 405 406 426
f 405 426 425
f 406 407 427
f 406 427 426
f 407 408 428
f 407 428 427
f 408 409 429
f 408 429 428
f 409 410 430
f 409 430 429
f 410 411 431
f 410 431 430
f 411 412 432
f 411 432 431
f 412 413 433
f 412 433 432
f 413 414 434
f 413 434 433
f 414 415 435
f 414 435 434
f 415 416 436
f 415 436 435
f 416 417 437
f 416 437 436
f 417 418 438
f 417 438 437
f 418 419 439
f 418 439 438
f 419 420 440
f 419 440 439
f 422 421 441
f 422 441 442
f 421 423 443
f 421 443 441
f 423 424 444
f 423 444 443
f 424 425 445
f 424 445 444
f 425 426 446
f 425 446 445
f 426 427 447
f 426 447 446
f 427 428 448
f 427 448 447
f 428 429 449
f 428 449 448
f 429 430 450
f 429 450 449
f 430 431 451
f 430 451 450
f 431 432 452
f 431 452 451
f 432 433 453
f 432 453 452
f 433 434 454
f 433 454 453
f 434 435 455
f 434 455 454
f 435 436 456
f 435 456 455
f 436 437 457
f 436 457 456
f 437 438 458
f 437 458 457
f 438 439 459
f 438 459 458
f 439 440 460
f 439 460 459
f 442 441 461
f 442 461 462
f 441 443 463
f 441 463 461
f 443 444 464
f 443 464 463
f 444 445 465
f 444 465 464
f 445 446 466
f 445 466 465
f 446 447 467
f 446 467 466
f 447 448 468
f 447 468 467
f 448 449 469
f 448 469 468
f 449 450 470
f 449 470 469
f 450 451 471
f 450 471 470
f 451 452 472
f 451 472 471
f 452 453 473
f 452 473 472
f 453 454 474
f 453 474 473
f 454 455 475
f 454 475 474
f 455 456 476
f 455 476 475
f 456 457 477
f 456 477 476
f 457 458 478
f 457 478 477
f 458 459 479
f 458 479 478
f 459 460 480
f 459 480 479
f 1 481 482
f 1 482 4
f 4 482 483
f 4 483 42
f 42 483 484
f 42 484 62
f 62 484 485
f 62 485 82
f 82 485 486
f 82 486 102
f 102 486 487
f 102 487 122
f 122 487 488
f 122 488 142
f 142 488 489
f 142 489 162
f 162 489 490
f 162 490 182
f 182 490 491
f 182 491 202
f 202 491 492
f 202 492 222
f 481 493 494
f 481 494 482
f 482 494 495
f 482 495 483
f 483 495 496
f 483 496 484
f 484 496 497
f 484 497 485
f 485 497 498
f 485 498 486
f 486 498 499
f 486 499 487
f 487 499 500
f 487 500 488
f 488 500 501
f 488 501 489
f 489 501 502
f 489 502 490
f 490 502 503
f 490 503 491
f 491 503 504
f 491 504 492
f 493 505 506
f 493 506 494
f 494 506 507
f 494 507 495
f 495 507 508
f 495 508 496
f 496 508 509
f 496 509 497
f 497 509 510
f 497 510 498
f 498 510 511
f 498 511 499
f 499 511 512
f 499 512 500
f 500 512 513
f 500 513 501
f 501 513 514
f 501 514 502
f 502 514 515
f 502 515 503
f 503 515 516
f 503 516 504
f 505 517 518
f 505 518 506
f 506 518 519
f 506 519 507
f 507 519 520
f 507 520 508
f 508 520 521
f 508 521 509
f 509 521 522
f 509 522 510
f 510 522 523
f 510 523 511
f 511 523 524
f 511 524 512
f 512 524 525
f 512 525 513
f 513 525 526
f 513 526 514
f 514 526 527
f 514 527 515
f 515 527 528
f 515 528 516
f 517 241 244
f 517 244 518
f 518 244 282
f 518 282 519
f 519 282 302
f 519 302 520
f 520 302 322
f 520 322 521
f 521 322 342
f 521 342 522
f 522 342 362
f 522 362 523
f 523 362 382
f 523 382 524
f 524 382 402
f 524 402 525
f 525 402 422
f 525 422 526
f 526 422 442
f 526 442 527
f 527 442 462
f 527 462 528
f 39 530 529
f 39 40 530
f 40 531 530
f 40 60 531
f 60 532 531
f 60 80 532
f 80 533 532
f 80 100 533
f 100 534 533
f 100 120 534
f 120 535 534
f 120 140 535
f 140 536 535
f 140 160 536
f 160 537 536
f 160 180 537
f 180 538 537
f 180 200 538
f 200 539 538
f 200 220 539
f 220 540 539
f 220 240 540
f 529 542 541
f 529 530 542
f 530 543 542
f 530 531 543
f 531 544 543
f 531 532 544
f 532 545 544
f 532 533 545
f 533 546 545
f 533 534 546
f 534 547 546
f 534 535 547
f 535 548 547
f 535 536 548
f 536 549 548
f 536 537 549
f 537 550 549
f 537 538 550
f 538 551 550
f 538 539 551
f 539 552 551
f 539 540 552
f 541 554 553
f 541 542 554
f 542 555 554
f 542 543 555
f 543 556 555
f 543 544 556
f 544 557 556
f 544 545 557
f 545 558 557
f 545 546 558
f 546 559 558
f 546 547 559
f 547 560 559
f 547 548 560
f 548 561 560
f 548 549 561
f 549 562 561
f 549 550 562
f 550 563 562
f 550 551 563
f 551 564 563
f 551 552 564
f 553 566 565
f 553 554 566
f 554 567 566
f 554 555 567
f 555 568 567
f 555 556 568
f 556 569 568
f 556 557 569
f 557 570 569
f 557 558 570
f 558 571 570
f 558 559 571
f 559 572 571
f 559 560 572
f 560 573 572
f 560 561 573
f 561 574 573
f 561 562 574
f 562 575 574
f 562 563 575
f 563 576 575
f 563 564 576
f 565 280 279
f 565 566 280
f 566 300 280
f 566 567 300
f 567 320 300
f 567 568 320
f 568 340 320
f 568 569 340
f 569 360 340
f 569 570 360
f 570 380 360
f 570 571 380
f 571 400 380
f 571 572 400
f 572 420 400
f 572 573 420
f 573 440 420
f 573 574 440
f 574 460 440
f 574 575 460
f 575 480 460
f 575 576 480
f 1 577 481
f 1 2 577
f 481 578 493
f 481 577 578
f 493 579 505
f 493 578 579
f 505 580 517
f 505 579 580
f 517 242 241
f 517 580 242
f 2 581 577
f 2 5 581
f 577 582 578
f 577 581 582
f 578 583 579
f 578 582 583
f 579 584 580
f 579 583 584
f 580 245 242
f 580 584 245
f 5 585 581
f 5 7 585
f 581 586 582
f 581 585 586
f 582 587 583
f 582 586 587
f 583 588 584
f 583 587 588
f 584 247 245
f 584 588 247
f 7 589 585
f 7 9 589
f 585 590 586
f 585 589 590
f 586 591 587
f 586 590 591
f 587 592 588
f 587 591 592
f 588 249 247
f 588 592 249
f 9 593 589
f 9 11 593
f 589 594 590
f 589 593 594
f 590 595 591
f 590 594 595
f 591 596 592
f 591 595 596
f 592 251 249
f 592 596 251
f 11 597 593
f 11 13 597
f 593 598 594
f 593 597 598
f 594 599 595
f 594 598 599
f 595 600 596
f 595 599 600
f 596 253 251
f 596 600 253
f 13 601 597
f 13 15 601
f 597 602 598
f 597 601 602
f 598 603 599
f 598 602 603
f 599 604 600
f 599 603 604
f 600 255 253
f 600 604 255
f 15 605 601
f 15 17 605
f 601 606 602
f 601 605 606
f 602 607 603
f 602 606 607
f 603 608 604
f 603 607 608
f 604 257 255
f 604 608 257
f 17 609 605
f 17 19 609
f 605 610 606
f 605 609 610
f 606 611 607
f 606 610 611
f 607 612 608
f 607 611 612
f 608 259 257
f 608 612 259
f 19 613 609
f 19 21 613
f 609 614 610
f 609 613 614
f 610 615 611
f 610 614 615
f 611 616 612
f 611 615 616
f 612 261 259
f 612 616 261
f 21 617 613
f 21 23 617
f 613 618 614
f 613 617 618
f 614 619 615
f 614 618 619
f 615 620 616
f 615 619 620
f 616 263 261
f 616 620 263
f 23 621 617
f 23 25 621
f 617 622 618
f 617 621 622
f 618 623 619
f 618 622 623
f 619 624 620
f 619 623 624
f 620 265 263
f 620 624 265
f 25 625 621
f 25 27 625
f 621 626 622
f 621 625 626
f 622 627 623
f 622 626 627
f 623 628 624
f 623 627 628
f 624 267 265
f 624 628 267
f 27 629 625
f 27 29 629
f 625 630 626
f 625 629 630
f 626 631 627
f 626 630 631
f 627 632 628
f 627 631 632
f 628 269 267
f 628 632 269
f 29 633 629
f 29 31 633
f 629 634 630
f 629 633 634
f 630 635 631
f 630 634 635
f 631 636 632
f 631 635 636
f 632 271 269
f 632 636 271
f 31 637 633
f 31 33 637
f 633 638 634
f 633 637 638
f 634 639 635
f 634 638 639
f 635 640 636
f 635 639 640
f 636 273 271
f 636 640 273
f 33 641 637
f 33 35 641
f 637 642 638
f 637 641 642
f 638 643 639
f 638 642 643
f 639 644 640
f 639 643 644
f 640 275 273
f 640 644 275
f 35 645 641
f 35 37 645
f 641 646 642
f 641 645 646
f 642 647 643
f 642 646 647
f 643 648 644
f 643 647 648
f 644 277 275
f 644 648 277
f 37 529 645
f 37 39 529
f 645 541 646
f 645 529 541
f 646 553 647
f 646 541 553
f 647 565 648
f 647 553 565
f 648 279 277
f 648 565 279
f 222 492 649
f 222 649 221
f 492 504 650
f 492 650 649
f 504 516 651
f 504 651 650
f 516 528 652
f 516 652 651
f 528 462 461
f 528 461 652
f 221 649 653
f 221 653 223
f 649 650 654
f 649 654 653
f 650 651 655
f 650 655 654
f 651 652 656
f 651 656 655
f 652 461 463
f 652 463 656
f 223 653 657
f 223 657 224
f 653 654 658
f 653 658 657
f 654 655 659
f 654 659 658
f 655 656 660
f 655 660 659
f 656 463 464
f 656 464 660
f 224 657 661
f 224 661 225
f 657 658 662
f 657 662 661
f 658 659 663
f 658 663 662
f 659 660 664
f 659 664 663
f 660 464 465
f 660 465 664
f 225 661 665
f 225 665 226
f 661 662 666
f 661 666 665
f 662 663 667
f 662 667 666
f 663 664 668
f 663 668 667
f 664 465 466
f 664 466 668
f 226 665 669
f 226 669 227
f 665 666 670
f 665 670 669
f 666 667 671
f 666 671 670
f 667 668 672
f 667 672 671
f 668 466 467
f 668 467 672
f 227 669 673
f 227 673 228
f 669 670 674
f 669 674 673
f 670 671 675
f 670 675 674
f 671 672 676
f 671 676 675
f 672 467 468
f 672 468 676
f 228 673 677
f 228 677 229
f 673 674 678
f 673 678 677
f 674 675 679
f 674 679 678
f 675 676 680
f 675 680 679
f 676 468 469
f 676 469 680
f 229 677 681
f 229 681 230
f 677 678 682
f 677 682 681
f 678 679 683
f 678 683 682
f 679 680 684
f 679 684 683
f 680 469 470
f 680 470 684
f 230 681 685
f 230 685 231
f 681 682 686
f 681 686 685
f 682 683 687
f 682 687 686
f 683 684 688
f 683 688 687
f 684 470 471
f 684 471 688
f 231 685 689
f 231 689 232
f 685 686 690
f 685 690 689
f 686 687 691
f 686 691 690
f 687 688 692
f 687 692 691
f 688 471 472
f 688 472 692
f 232 689 693
f 232 693 233
f 689 690 694
f 689 694 693
f 690 691 695
f 690 695 694
f 691 692 696
f 691 696 695
f 692 472 473
f 692 473 696
f 233 693 697
f 233 697 234
f 693 694 698
f 693 698 697
f 694 695 699
f 694 699 698
f 695 696 700
f 695 700 699
f 696 473 474
f 696 474 700
f 234 697 701
f 234 701 235
f 697 698 702
f 697 702 701
f 698 699 703
f 698 703 702
f 699 700 704
f 699 704 703
f 700 474 475
f 700 475 704
f 235 701 705
f 235 705 236
f 701 702 706
f 701 706 705
f 702 703 707
f 702 707 706
f 703 704 708
f 703 708 707
f 704 475 476
f 704 476 708
f 236 705 709
f 236 709 237
f 705 706 710
f 705 710 709
f 706 707 711
f 706 711 710
f 707 708 712
f 707 712 711
f 708 476 477
f 708 477 712
f 237 709 713
f 237 713 238
f 709 710 714
f 709 714 713
f 710 711 715
f 710 715 714
f 711 712 716
f 711 716 715
f 712 477 478
f 712 478 716
f 238 713 717
f 238 717 239
f 713 714 718
f 713 718 717
f 714 715 719
f 714 719 718
f 715 716 720
f 715 720 719
f 716 478 479
f 716 479 720
f 239 717 540
f 239 540 240
f 717 718 552
f 717 552 540
f 718 719 564
f 718 564 552
f 719 720 576
f 719 576 564
f 720 479 480
f 720 480 576
